<mxfile host="app.diagrams.net" modified="2023-11-01T23:33:56.734Z" agent="Mozilla/5.0 (Windows NT 10.0; Win64; x64) AppleWebKit/537.36 (KHTML, like Gecko) Chrome/118.0.0.0 Safari/537.36" etag="Uu-pAcYYjTHmtNS2POWm" version="22.0.8" type="device">
  <diagram name="Página-1" id="PyaGnjLZzP0qq1rLDIXX">
    <mxGraphModel dx="2856" dy="929" grid="1" gridSize="10" guides="1" tooltips="1" connect="1" arrows="1" fold="1" page="1" pageScale="1" pageWidth="1169" pageHeight="827" math="0" shadow="0">
      <root>
        <mxCell id="0" />
        <mxCell id="1" parent="0" />
        <mxCell id="TrnSJ_s4TAhDEZTInjrY-58" value="" style="edgeStyle=orthogonalEdgeStyle;rounded=0;orthogonalLoop=1;jettySize=auto;html=1;" edge="1" parent="1" source="TrnSJ_s4TAhDEZTInjrY-4" target="TrnSJ_s4TAhDEZTInjrY-57">
          <mxGeometry relative="1" as="geometry" />
        </mxCell>
        <mxCell id="TrnSJ_s4TAhDEZTInjrY-4" value="Cliente" style="shape=umlActor;verticalLabelPosition=bottom;verticalAlign=top;html=1;" vertex="1" parent="1">
          <mxGeometry x="182" y="217" width="30" height="60" as="geometry" />
        </mxCell>
        <mxCell id="TrnSJ_s4TAhDEZTInjrY-18" value="Recepcionista do Hotel" style="shape=umlActor;verticalLabelPosition=bottom;verticalAlign=top;html=1;" vertex="1" parent="1">
          <mxGeometry x="202" y="587" width="30" height="60" as="geometry" />
        </mxCell>
        <mxCell id="TrnSJ_s4TAhDEZTInjrY-27" value="Gerente do Hotel" style="shape=umlActor;verticalLabelPosition=bottom;verticalAlign=top;html=1;" vertex="1" parent="1">
          <mxGeometry x="202" y="777" width="30" height="60" as="geometry" />
        </mxCell>
        <mxCell id="TrnSJ_s4TAhDEZTInjrY-78" value="" style="edgeStyle=orthogonalEdgeStyle;rounded=0;orthogonalLoop=1;jettySize=auto;html=1;" edge="1" parent="1" source="TrnSJ_s4TAhDEZTInjrY-28" target="TrnSJ_s4TAhDEZTInjrY-77">
          <mxGeometry relative="1" as="geometry" />
        </mxCell>
        <mxCell id="TrnSJ_s4TAhDEZTInjrY-28" value="" style="shape=umlActor;verticalLabelPosition=bottom;verticalAlign=top;html=1;" vertex="1" parent="1">
          <mxGeometry x="202" y="777" width="30" height="60" as="geometry" />
        </mxCell>
        <mxCell id="TrnSJ_s4TAhDEZTInjrY-49" value="" style="edgeStyle=orthogonalEdgeStyle;rounded=0;orthogonalLoop=1;jettySize=auto;html=1;" edge="1" parent="1" source="TrnSJ_s4TAhDEZTInjrY-44" target="TrnSJ_s4TAhDEZTInjrY-48">
          <mxGeometry relative="1" as="geometry" />
        </mxCell>
        <mxCell id="TrnSJ_s4TAhDEZTInjrY-44" value="Disponibilidades de quartos" style="rounded=0;whiteSpace=wrap;html=1;" vertex="1" parent="1">
          <mxGeometry x="482" y="97" width="120" height="60" as="geometry" />
        </mxCell>
        <mxCell id="TrnSJ_s4TAhDEZTInjrY-56" value="" style="edgeStyle=orthogonalEdgeStyle;rounded=0;orthogonalLoop=1;jettySize=auto;html=1;" edge="1" parent="1" source="TrnSJ_s4TAhDEZTInjrY-45" target="TrnSJ_s4TAhDEZTInjrY-55">
          <mxGeometry relative="1" as="geometry" />
        </mxCell>
        <mxCell id="TrnSJ_s4TAhDEZTInjrY-45" value="Registros no Sistema" style="rounded=0;whiteSpace=wrap;html=1;" vertex="1" parent="1">
          <mxGeometry x="972" y="97" width="120" height="60" as="geometry" />
        </mxCell>
        <mxCell id="TrnSJ_s4TAhDEZTInjrY-46" value="cliente verifica disponibilidades&amp;nbsp;" style="ellipse;whiteSpace=wrap;html=1;" vertex="1" parent="1">
          <mxGeometry x="252" y="217" width="120" height="80" as="geometry" />
        </mxCell>
        <mxCell id="TrnSJ_s4TAhDEZTInjrY-47" value="" style="endArrow=classic;html=1;rounded=0;exitX=1;exitY=0.5;exitDx=0;exitDy=0;entryX=0;entryY=0.5;entryDx=0;entryDy=0;" edge="1" parent="1" source="TrnSJ_s4TAhDEZTInjrY-46" target="TrnSJ_s4TAhDEZTInjrY-44">
          <mxGeometry width="50" height="50" relative="1" as="geometry">
            <mxPoint x="572" y="467" as="sourcePoint" />
            <mxPoint x="622" y="417" as="targetPoint" />
            <Array as="points">
              <mxPoint x="372" y="127" />
            </Array>
          </mxGeometry>
        </mxCell>
        <mxCell id="TrnSJ_s4TAhDEZTInjrY-53" value="" style="edgeStyle=orthogonalEdgeStyle;rounded=0;orthogonalLoop=1;jettySize=auto;html=1;" edge="1" parent="1" source="TrnSJ_s4TAhDEZTInjrY-48" target="TrnSJ_s4TAhDEZTInjrY-52">
          <mxGeometry relative="1" as="geometry" />
        </mxCell>
        <mxCell id="TrnSJ_s4TAhDEZTInjrY-48" value="Decisão de registro" style="rhombus;whiteSpace=wrap;html=1;rounded=0;" vertex="1" parent="1">
          <mxGeometry x="702" y="87" width="80" height="80" as="geometry" />
        </mxCell>
        <mxCell id="TrnSJ_s4TAhDEZTInjrY-50" value="" style="endArrow=classic;html=1;rounded=0;exitX=1;exitY=0.5;exitDx=0;exitDy=0;entryX=0;entryY=0.5;entryDx=0;entryDy=0;" edge="1" parent="1" source="TrnSJ_s4TAhDEZTInjrY-48" target="TrnSJ_s4TAhDEZTInjrY-45">
          <mxGeometry width="50" height="50" relative="1" as="geometry">
            <mxPoint x="572" y="467" as="sourcePoint" />
            <mxPoint x="622" y="417" as="targetPoint" />
          </mxGeometry>
        </mxCell>
        <mxCell id="TrnSJ_s4TAhDEZTInjrY-51" value="se sim decidiu registrar-se" style="text;html=1;align=center;verticalAlign=middle;resizable=0;points=[];autosize=1;strokeColor=none;fillColor=none;" vertex="1" parent="1">
          <mxGeometry x="802" y="95" width="160" height="30" as="geometry" />
        </mxCell>
        <mxCell id="TrnSJ_s4TAhDEZTInjrY-52" value="fim" style="ellipse;whiteSpace=wrap;html=1;rounded=0;" vertex="1" parent="1">
          <mxGeometry x="702" y="247" width="80" height="80" as="geometry" />
        </mxCell>
        <mxCell id="TrnSJ_s4TAhDEZTInjrY-54" value="se não se registrou" style="text;html=1;align=center;verticalAlign=middle;resizable=0;points=[];autosize=1;strokeColor=none;fillColor=none;" vertex="1" parent="1">
          <mxGeometry x="612" y="187" width="130" height="30" as="geometry" />
        </mxCell>
        <mxCell id="TrnSJ_s4TAhDEZTInjrY-61" value="" style="edgeStyle=orthogonalEdgeStyle;rounded=0;orthogonalLoop=1;jettySize=auto;html=1;" edge="1" parent="1" source="TrnSJ_s4TAhDEZTInjrY-55" target="TrnSJ_s4TAhDEZTInjrY-60">
          <mxGeometry relative="1" as="geometry" />
        </mxCell>
        <mxCell id="TrnSJ_s4TAhDEZTInjrY-55" value="Número de registro gerado" style="whiteSpace=wrap;html=1;rounded=0;" vertex="1" parent="1">
          <mxGeometry x="972" y="237" width="120" height="60" as="geometry" />
        </mxCell>
        <mxCell id="TrnSJ_s4TAhDEZTInjrY-57" value="Decide cancelar &lt;br&gt;a reserva já feita" style="ellipse;whiteSpace=wrap;html=1;verticalAlign=top;" vertex="1" parent="1">
          <mxGeometry x="162" y="317" width="130" height="50" as="geometry" />
        </mxCell>
        <mxCell id="TrnSJ_s4TAhDEZTInjrY-59" value="" style="endArrow=classic;html=1;rounded=0;exitX=1;exitY=0.5;exitDx=0;exitDy=0;entryX=0.5;entryY=1;entryDx=0;entryDy=0;" edge="1" parent="1" source="TrnSJ_s4TAhDEZTInjrY-57" target="TrnSJ_s4TAhDEZTInjrY-55">
          <mxGeometry width="50" height="50" relative="1" as="geometry">
            <mxPoint x="572" y="467" as="sourcePoint" />
            <mxPoint x="1032" y="387" as="targetPoint" />
            <Array as="points">
              <mxPoint x="1032" y="347" />
            </Array>
          </mxGeometry>
        </mxCell>
        <mxCell id="TrnSJ_s4TAhDEZTInjrY-60" value="decisão do cliente" style="rhombus;whiteSpace=wrap;html=1;rounded=0;" vertex="1" parent="1">
          <mxGeometry x="1192" y="227" width="80" height="80" as="geometry" />
        </mxCell>
        <mxCell id="TrnSJ_s4TAhDEZTInjrY-62" value="" style="endArrow=classic;html=1;rounded=0;exitX=0.5;exitY=0;exitDx=0;exitDy=0;entryX=0.5;entryY=0;entryDx=0;entryDy=0;" edge="1" parent="1" source="TrnSJ_s4TAhDEZTInjrY-60" target="TrnSJ_s4TAhDEZTInjrY-44">
          <mxGeometry width="50" height="50" relative="1" as="geometry">
            <mxPoint x="572" y="467" as="sourcePoint" />
            <mxPoint x="622" y="417" as="targetPoint" />
            <Array as="points">
              <mxPoint x="1232" y="37" />
              <mxPoint x="882" y="37" />
              <mxPoint x="542" y="37" />
            </Array>
          </mxGeometry>
        </mxCell>
        <mxCell id="TrnSJ_s4TAhDEZTInjrY-64" value="se cancelar a reserva atualize a disponibilidades dos quartos" style="text;html=1;align=center;verticalAlign=middle;resizable=0;points=[];autosize=1;strokeColor=none;fillColor=none;" vertex="1" parent="1">
          <mxGeometry x="677" y="5" width="350" height="30" as="geometry" />
        </mxCell>
        <mxCell id="TrnSJ_s4TAhDEZTInjrY-65" value="" style="endArrow=classic;html=1;rounded=0;exitX=0.5;exitY=1;exitDx=0;exitDy=0;entryX=1;entryY=0.5;entryDx=0;entryDy=0;" edge="1" parent="1" source="TrnSJ_s4TAhDEZTInjrY-60" target="TrnSJ_s4TAhDEZTInjrY-66">
          <mxGeometry width="50" height="50" relative="1" as="geometry">
            <mxPoint x="572" y="397" as="sourcePoint" />
            <mxPoint x="1232" y="507" as="targetPoint" />
            <Array as="points">
              <mxPoint x="1232" y="481" />
            </Array>
          </mxGeometry>
        </mxCell>
        <mxCell id="TrnSJ_s4TAhDEZTInjrY-66" value="Reservas&amp;nbsp;" style="rounded=0;whiteSpace=wrap;html=1;" vertex="1" parent="1">
          <mxGeometry x="962" y="451" width="120" height="60" as="geometry" />
        </mxCell>
        <mxCell id="TrnSJ_s4TAhDEZTInjrY-67" value="se decidiu continuar&lt;br&gt;&amp;nbsp;a reserva" style="text;html=1;align=center;verticalAlign=middle;resizable=0;points=[];autosize=1;strokeColor=none;fillColor=none;" vertex="1" parent="1">
          <mxGeometry x="1107" y="431" width="130" height="40" as="geometry" />
        </mxCell>
        <mxCell id="TrnSJ_s4TAhDEZTInjrY-68" value="Cliente chega ao hotel" style="ellipse;whiteSpace=wrap;html=1;" vertex="1" parent="1">
          <mxGeometry x="172" y="417" width="120" height="80" as="geometry" />
        </mxCell>
        <mxCell id="TrnSJ_s4TAhDEZTInjrY-69" value="" style="endArrow=classic;html=1;rounded=0;entryX=0;entryY=0.5;entryDx=0;entryDy=0;" edge="1" parent="1" target="TrnSJ_s4TAhDEZTInjrY-68">
          <mxGeometry width="50" height="50" relative="1" as="geometry">
            <mxPoint x="172" y="257" as="sourcePoint" />
            <mxPoint x="82" y="277" as="targetPoint" />
            <Array as="points">
              <mxPoint x="82" y="257" />
              <mxPoint x="82" y="457" />
            </Array>
          </mxGeometry>
        </mxCell>
        <mxCell id="TrnSJ_s4TAhDEZTInjrY-70" value="registro de check-in" style="rhombus;whiteSpace=wrap;html=1;" vertex="1" parent="1">
          <mxGeometry x="412" y="427" width="80" height="80" as="geometry" />
        </mxCell>
        <mxCell id="TrnSJ_s4TAhDEZTInjrY-71" value="" style="endArrow=classic;html=1;rounded=0;exitX=1;exitY=0.5;exitDx=0;exitDy=0;" edge="1" parent="1" source="TrnSJ_s4TAhDEZTInjrY-68" target="TrnSJ_s4TAhDEZTInjrY-70">
          <mxGeometry width="50" height="50" relative="1" as="geometry">
            <mxPoint x="572" y="497" as="sourcePoint" />
            <mxPoint x="622" y="447" as="targetPoint" />
          </mxGeometry>
        </mxCell>
        <mxCell id="TrnSJ_s4TAhDEZTInjrY-72" value="" style="endArrow=classic;html=1;rounded=0;entryX=0.5;entryY=1;entryDx=0;entryDy=0;" edge="1" parent="1" target="TrnSJ_s4TAhDEZTInjrY-70">
          <mxGeometry width="50" height="50" relative="1" as="geometry">
            <mxPoint x="242" y="617" as="sourcePoint" />
            <mxPoint x="622" y="447" as="targetPoint" />
            <Array as="points">
              <mxPoint x="452" y="617" />
            </Array>
          </mxGeometry>
        </mxCell>
        <mxCell id="TrnSJ_s4TAhDEZTInjrY-73" value="" style="endArrow=classic;html=1;rounded=0;exitX=0;exitY=0.5;exitDx=0;exitDy=0;entryX=1;entryY=0.5;entryDx=0;entryDy=0;" edge="1" parent="1" source="TrnSJ_s4TAhDEZTInjrY-66" target="TrnSJ_s4TAhDEZTInjrY-70">
          <mxGeometry width="50" height="50" relative="1" as="geometry">
            <mxPoint x="572" y="497" as="sourcePoint" />
            <mxPoint x="622" y="447" as="targetPoint" />
            <Array as="points">
              <mxPoint x="722" y="477" />
            </Array>
          </mxGeometry>
        </mxCell>
        <mxCell id="TrnSJ_s4TAhDEZTInjrY-77" value="decide verificar as reservas" style="rhombus;whiteSpace=wrap;html=1;verticalAlign=top;" vertex="1" parent="1">
          <mxGeometry x="482" y="767" width="80" height="80" as="geometry" />
        </mxCell>
        <mxCell id="TrnSJ_s4TAhDEZTInjrY-79" value="" style="endArrow=classic;html=1;rounded=0;exitX=0.925;exitY=0.35;exitDx=0;exitDy=0;exitPerimeter=0;entryX=0;entryY=1;entryDx=0;entryDy=0;" edge="1" parent="1" source="TrnSJ_s4TAhDEZTInjrY-77" target="TrnSJ_s4TAhDEZTInjrY-66">
          <mxGeometry width="50" height="50" relative="1" as="geometry">
            <mxPoint x="572" y="687" as="sourcePoint" />
            <mxPoint x="622" y="637" as="targetPoint" />
            <Array as="points">
              <mxPoint x="952" y="797" />
            </Array>
          </mxGeometry>
        </mxCell>
        <mxCell id="TrnSJ_s4TAhDEZTInjrY-85" value="" style="edgeStyle=orthogonalEdgeStyle;rounded=0;orthogonalLoop=1;jettySize=auto;html=1;" edge="1" parent="1" source="TrnSJ_s4TAhDEZTInjrY-81" target="TrnSJ_s4TAhDEZTInjrY-84">
          <mxGeometry relative="1" as="geometry" />
        </mxCell>
        <mxCell id="TrnSJ_s4TAhDEZTInjrY-81" value="check-out&amp;nbsp;" style="rhombus;whiteSpace=wrap;html=1;" vertex="1" parent="1">
          <mxGeometry x="522" y="587" width="80" height="80" as="geometry" />
        </mxCell>
        <mxCell id="TrnSJ_s4TAhDEZTInjrY-82" value="" style="endArrow=classic;html=1;rounded=0;entryX=0.113;entryY=0.7;entryDx=0;entryDy=0;entryPerimeter=0;" edge="1" parent="1" target="TrnSJ_s4TAhDEZTInjrY-81">
          <mxGeometry width="50" height="50" relative="1" as="geometry">
            <mxPoint x="252" y="637" as="sourcePoint" />
            <mxPoint x="622" y="437" as="targetPoint" />
          </mxGeometry>
        </mxCell>
        <mxCell id="TrnSJ_s4TAhDEZTInjrY-84" value="Fatura" style="whiteSpace=wrap;html=1;" vertex="1" parent="1">
          <mxGeometry x="662" y="597" width="120" height="60" as="geometry" />
        </mxCell>
        <mxCell id="TrnSJ_s4TAhDEZTInjrY-86" value="" style="endArrow=classic;html=1;rounded=0;exitX=0.5;exitY=1;exitDx=0;exitDy=0;entryX=0;entryY=0.3333333333333333;entryDx=0;entryDy=0;entryPerimeter=0;" edge="1" parent="1" source="TrnSJ_s4TAhDEZTInjrY-84" target="TrnSJ_s4TAhDEZTInjrY-4">
          <mxGeometry width="50" height="50" relative="1" as="geometry">
            <mxPoint x="572" y="487" as="sourcePoint" />
            <mxPoint x="622" y="437" as="targetPoint" />
            <Array as="points">
              <mxPoint x="722" y="727" />
              <mxPoint x="2" y="727" />
              <mxPoint x="12" y="237" />
            </Array>
          </mxGeometry>
        </mxCell>
        <mxCell id="TrnSJ_s4TAhDEZTInjrY-87" value="" style="endArrow=classic;html=1;rounded=0;exitX=0.5;exitY=0.5;exitDx=0;exitDy=0;exitPerimeter=0;entryX=0.5;entryY=1;entryDx=0;entryDy=0;" edge="1" parent="1" source="TrnSJ_s4TAhDEZTInjrY-4" target="TrnSJ_s4TAhDEZTInjrY-81">
          <mxGeometry width="50" height="50" relative="1" as="geometry">
            <mxPoint x="572" y="587" as="sourcePoint" />
            <mxPoint x="622" y="537" as="targetPoint" />
            <Array as="points">
              <mxPoint x="72" y="247" />
              <mxPoint x="62" y="457" />
              <mxPoint x="62" y="697" />
              <mxPoint x="562" y="697" />
            </Array>
          </mxGeometry>
        </mxCell>
      </root>
    </mxGraphModel>
  </diagram>
</mxfile>
